<?xml version="1.0" encoding="utf-8"?>
<!-- Generator: Adobe Illustrator 27.5.0, SVG Export Plug-In . SVG Version: 6.00 Build 0)  -->
<svg version="1.1" id="Capa_1" xmlns="http://www.w3.org/2000/svg" xmlns:xlink="http://www.w3.org/1999/xlink" x="0px" y="0px"
	 viewBox="0 0 2122 2122" style="enable-background:new 0 0 2122 2122;" xml:space="preserve">
<g>
	<polygon style="fill:none;" points="1120.683,637.02 1121.341,636.413 1120.225,637.02 1120.147,637.526 	"/>
	<polygon style="fill:none;" points="927.5,578.323 927.509,578.323 927.504,578.297 	"/>
	<polygon style="fill:none;" points="1020.659,673.229 1020.659,673.256 1020.907,673.293 	"/>
	<path style="fill:#EFCBBC;" d="M946.734,1123.996c-26.621-41.973-54.256-83.488-82.46-124.884l2.407,98.188l0.258-0.027
		C892.883,1108.191,919.578,1117.039,946.734,1123.996z"/>
	<path style="fill:#CA8080;" d="M947.393,1124.176c49.013,12.5,99.517,18.624,149.904,18.624c52.941,0,105.745-6.76,156.546-19.988
		l0.17,0.036l4.351-177.488c-44.726,49.427-133.89,129.259-133.89,129.259s-98.811,13.722-122.138,0
		c-19.021-11.186-99.114-74.341-139.235-123.327l1.174,47.819c28.204,41.396,55.839,82.911,82.46,124.884L947.393,1124.176z"/>
	<path style="fill:#EFCBBC;" d="M1002.335,1074.62c23.327,13.722,122.138,0,122.138,0s89.164-79.832,133.89-129.259
		c12.117-13.396,21.004-24.578,23.932-31.308c2.451-5.635,4.901-13.896,7.303-23.805c4.531-18.662,8.891-43.254,12.774-67.744
		c-2.304,0.533-4.692,0.845-7.157,0.848h-50.874c-32.955,14.668-78.718,25.335-131.045,29.771l-52.638,15.593l-51.225-15.177
		c-54.397-4.166-102.002-15.057-135.995-30.188h-49.924c-2.261-0.003-4.463-0.248-6.592-0.701
		c4.151,21.518,9.481,46.051,15.63,67.44c3.313,11.515,6.855,22.122,10.587,30.826c3.805,8.88,10.86,19.267,19.961,30.378
		C903.222,1000.279,983.315,1063.433,1002.335,1074.62z M1033.02,940.591c0,0,23.079-13.608,52.229-3.398
		C1103.08,943.441,1046.735,966.074,1033.02,940.591z M964.913,908.354c2.787,1.508,88.936,10.772,94.144,10.931
		c5.208,0.159,89.569-13.406,93.116-13.8c3.552-0.395,7.605-2.178,7.605-2.178s-0.312,7.657-3.001,9.33
		c-2.689,1.676-83.118,9.384-97.106,8.857c-13.983-0.524-94.523-5.5-97.846-6.672c-3.323-1.172-3.82-8.485-3.82-8.485
		S962.126,906.847,964.913,908.354z"/>
	<path style="fill:#F1BFB5;" d="M1098.067,791.473v-48.609h-77.408v48.609c-0.019,17.566-14.31,31.859-31.873,31.878H873.439
		c33.993,15.13,81.598,26.022,135.995,30.188l-8.96-2.655c0,0,61.778-26.112,120.375,0l-7.552,2.239
		c52.327-4.436,98.09-15.103,131.045-29.771H1129.94C1112.376,823.331,1098.086,809.039,1098.067,791.473z"/>
	<path style="fill:#4C0D18;" d="M961.823,914.822c3.323,1.172,83.864,6.148,97.846,6.672c13.988,0.526,94.417-7.182,97.106-8.857
		c2.69-1.673,3.001-9.33,3.001-9.33s-4.054,1.783-7.605,2.178c-3.547,0.395-87.908,13.959-93.116,13.8
		c-5.208-0.158-91.357-9.422-94.144-10.931c-2.787-1.508-6.909-2.017-6.909-2.017S958.501,913.65,961.823,914.822z"/>
	<path style="fill:#CA8080;" d="M1085.249,937.193c-29.15-10.21-52.229,3.398-52.229,3.398
		C1046.735,966.074,1103.08,943.441,1085.249,937.193z"/>
	<path style="fill:#CA8080;" d="M1000.474,850.883l8.96,2.655l51.225,15.177l52.638-15.593l7.552-2.239
		C1062.252,824.771,1000.474,850.883,1000.474,850.883z M1017.789,851.582c0,0,15.922-11.766,33.116,9.41L1017.789,851.582z
		 M1069.906,860.993c17.199-21.177,33.121-9.41,33.121-9.41L1069.906,860.993z"/>
	<path style="fill:#4C0D18;" d="M1017.789,851.582l33.116,9.41C1033.711,839.816,1017.789,851.582,1017.789,851.582z"/>
	<path style="fill:#4C0D18;" d="M1069.906,860.993l33.121-9.41C1103.027,851.582,1087.105,839.816,1069.906,860.993z"/>
	<path style="fill:#F0C9BD;" d="M802.028,742.457c0.863,0.646,1.71,1.318,2.558,1.99c-0.521-4.589-1.086-9.844-1.676-15.679
		C802.569,733.329,802.301,737.892,802.028,742.457z"/>
	<path style="fill:#F0C9BD;" d="M751.617,723.999c13.661,0,27.313,4.19,40.019,11.566v-4.275l-0.506-0.168
		c-6.889-9.63-15.318-19.842-18.319-24.804c-6.324-10.475-11.873-20.531-15.401-31.707c-12.083,4.882-23.839,24.516-24.146,59.41
		C736.942,727.907,742.652,723.999,751.617,723.999z"/>
	<path style="fill:#CA8080;" d="M791.636,791.473v-55.908c-12.706-7.376-26.358-11.566-40.019-11.566
		c-8.965,0-14.675,3.907-18.354,10.022c-0.117,13.12,1.374,28.37,5.087,45.812c14.032,65.883,59.601,113.612,94.202,110.256
		c-6.148-21.388-11.479-45.922-15.63-67.44C802.511,819.592,791.651,806.781,791.636,791.473z"/>
	<path style="fill:#CA8080;" d="M959.076,644.92c-2.797-3.257-5.096-6.592-7.016-9.986v-0.307h-70.972l-0.034,0.375
		c-10.841,14.458-25.135,25.98-42.582,30.202l-0.628-0.215l-0.083-0.663c4.424-9.223,6.519-19.457,6.533-29.7h-17.632v0.309
		c-3.103,5.442-6.168,9.949-8.224,12.278c-3.693,4.171-8.433,7.747-13.671,10.692c-1.764,28.477-2.353,53.944-2.529,70.767
		l-0.624,0.611v62.188c0,6.019,2.451,11.471,6.436,15.461c1.949,1.942,4.248,3.503,6.782,4.611
		c-4.668-25.428-7.372-44.336-7.372-44.336s-1.213-8.083-2.875-22.762c-0.848-0.673-1.695-1.345-2.558-1.99
		c0.273-4.565,0.541-9.128,0.882-13.688c0.463-6.141,0.974-12.28,1.51-18.412c0.989-11.313,2.227-21.228,5.72-31.905
		c1.14-3.488,15.079-27.866,14.855-28.446c3.342,8.75,3.459,18.689,0.331,27.518c6.626-1.099,13.111-2.821,19.42-5.03
		c2.685-2.146,5.944-3.63,9.555-4.11l0.75-0.08c16.614-7.586,31.581-18.814,43.659-32.58c29.851,15.501,59.001,33.162,79.517,33.968
		c9.749,6.617,20.794,11.135,32.092,12.502l0.361-0.03v-9.954l-0.112,0.029C990.613,668.533,973.687,661.968,959.076,644.92z"/>
	<path style="fill:#F0C9BD;" d="M1328.279,722.389l-0.648,1.138l-0.541,0.224v11.417c12.516-7.135,25.929-11.169,39.352-11.169
		c8.965,0,14.675,3.907,18.353,10.022c-0.341-38.626-14.704-58.648-28.014-60.548c-0.609-0.085-1.262-0.009-1.91,0.041l-0.366,0.422
		C1343.533,686.981,1336.703,707.432,1328.279,722.389z"/>
	<path style="fill:#CA8080;" d="M1317.112,742.44l-0.682,0.494c-0.77,1.313-1.545,2.616-2.319,3.922l-0.774,1.306
		c-2.348,16.081-5.525,39.111-9.233,63.269c2.446-1.101,4.682-2.609,6.573-4.495c3.985-3.993,6.436-9.445,6.436-15.464V742.44z"/>
	<path style="fill:#CA8080;" d="M1366.442,723.999c-13.422,0-26.835,4.034-39.352,11.169v56.305
		c-0.015,15.101-10.592,27.756-24.716,31.03c-3.883,24.49-8.243,49.082-12.774,67.744c34.012-0.555,76.624-47.101,90.109-110.414
		c3.712-17.442,5.204-32.692,5.086-45.812C1381.116,727.907,1375.407,723.999,1366.442,723.999z"/>
	<path style="fill:#EFCBBC;" d="M1049.672,576.08c-9.535,17.635-23.81,32.687-31.001,51.401c-1.452,3.773-2.466,7.815-3.055,11.937
		c3.172,4.95,5.033,10.811,5.042,17.108v13.001c2.767,4.628,6.573,8.507,11.606,11.074c-0.599,0.173-1.208,0.278-1.807,0.427
		c9.33-0.402,18.806-0.634,28.433-0.634c13.35,0,26.421,0.417,39.176,1.181v-25.049c0.015-15.006,10.471-27.564,24.463-30.933
		l-0.078-0.349c1.067-3.425,2.485-7.299,4.361-11.303l0.126-0.238c-26.996-29.528-47.747-66.234-76.974-94.1
		C1063.085,534.759,1059.202,558.443,1049.672,576.08z"/>
	<path style="fill:#EFCBBC;" d="M1156.649,683.132c11.454-5.876,44.541-14.977,79.615-16.105
		c-17.686-1.53-35.152-5.123-51.547-11.654c-38.499,9.688-70.231,18.699-68.297-0.863c0.619-6.263,2.168-12.104,4.263-17.49
		l-0.536,0.506l0.078-0.506c-2.109,1.062-4.078,2.38-5.744,4.044c-3.986,3.99-6.436,9.442-6.436,15.462v25.717
		c14.505,1.104,28.517,2.695,41.929,4.707C1152.099,685.629,1154.301,684.338,1156.649,683.132z"/>
	<path style="fill:#EFCBBC;" d="M965.029,683.132c2.08,1.067,4.034,2.202,5.939,3.362c12.638-1.82,25.773-3.281,39.351-4.299
		c-11.298-1.367-22.343-5.886-32.092-12.502c-20.516-0.806-49.666-18.467-79.517-33.968c-12.078,13.766-27.045,24.994-43.659,32.58
		C899.617,662.594,950.272,675.561,965.029,683.132z"/>
	<path style="fill:#EFCBBC;" d="M819.163,767.904c0-18.879,16.434-36.346,44.283-50.643c-4.034-4.588-5.808-8.193-6.1-8.833
		c-4.209-4.283-9.369-17.671-11.722-24.224c-5.077,0.853-7.97,1.513-7.97,1.513c0.429-5.371,3.118-10.046,7.093-13.223
		c-6.309,2.21-12.794,3.932-19.42,5.03c3.128-8.828,3.011-18.767-0.331-27.518c0.224,0.58-13.715,24.958-14.855,28.446
		c-3.493,10.677-4.731,20.592-5.72,31.905c-0.536,6.132-1.047,12.271-1.51,18.412c0.59,5.835,1.154,11.089,1.676,15.679
		c1.661,14.68,2.875,22.762,2.875,22.762s2.704,18.909,7.372,44.336c2.67,1.164,5.598,1.827,8.682,1.827h30.519
		C831.914,800.121,819.163,784.557,819.163,767.904z"/>
	<path style="fill:#EFCBBC;" d="M1311.762,750.822v-0.005l-0.755,1.269l-0.063,0.024c-0.458,2.585-0.648,2.831-0.502,0.193
		l-0.156,0.058l-0.438-0.638c0-0.01,0.18-2.531,0.18-9.354c0-0.838-0.005-1.747-0.01-2.716c-1.296-10.831-4.643-21.827-7.25-31.907
		c-2.611-10.073-4.531-21.749-8.838-31.225c-5.379-11.83-6.056-9.752-19.542-9.016c-3.839,0.209-7.698,0.329-11.566,0.395
		c1.52,0.159,3.055,0.285,4.56,0.485c8.95,1.194,15.927,8.331,16.648,17.332c0,0-2.894-0.66-7.971-1.513
		c-2.353,6.551-7.508,19.929-11.722,24.219c-0.312,0.685-2.407,4.972-7.352,10.2c26.255,14.037,41.632,31.001,41.632,49.282
		c0,16.652-12.75,32.217-34.87,45.469h31.469c3.172,0,6.163-0.716,8.887-1.941c3.708-24.158,6.884-47.189,9.233-63.269
		C1312.815,749.049,1312.293,749.936,1311.762,750.822z"/>
	<path style="fill:#CA8080;" d="M839.539,608.94c-0.828,0.195-1.652,0.387-2.475,0.597c-0.862,4.645-2.762,9.915-5.135,15.113
		h11.713C842.896,619.266,841.507,613.994,839.539,608.94z"/>
	<path style="fill:#CA8080;" d="M1257.969,544.248c10.295,19.186,25.51,35.588,43.615,47.708
		c-0.492-6.146-1.004-12.456-1.554-19.067C1284.327,566.681,1270.296,556.058,1257.969,544.248z"/>
	<path style="fill:#CA8080;" d="M924.674,578.309c0,0,0.297-0.005,0.833-0.005c0.458,0,1.087,0.003,1.851,0.017l0.142,0.002
		l0.005-0.026l0.005,0.026l0.18,0.003c3.24,0.063,8.843,0.346,15.416,1.235c0.083-3.983,0.175-7.985,0.175-12.012
		c0-1.835-0.014-3.671-0.058-5.513c-0.687-28.455-14.129-56.684-36.234-74.689c2.149,3.369,3.713,7.608,4.833,12.275
		c1.827,7.628,2.48,16.407,2.48,24.402c0,7.6-0.59,14.482-1.34,18.986c-2.003,11.99-4.512,24.882-7.781,37.457
		c6.3-1.003,12.775-1.783,19.469-2.158H924.674z"/>
	<path style="fill:#CA8080;" d="M1032.265,680.601c-5.033-2.567-8.838-6.446-11.606-11.074v3.703l0.248,0.063l-0.248-0.036v8.258
		c3.24-0.19,6.514-0.346,9.798-0.487C1031.056,680.878,1031.665,680.774,1032.265,680.601z"/>
	<path style="fill:#CA8080;" d="M1310.944,752.111l-0.502,0.193C1310.296,754.942,1310.486,754.696,1310.944,752.111z"/>
	<path style="fill:#F1BFB5;" d="M1298.617,767.904c0-18.28-15.377-35.245-41.632-49.282c-8.419,8.906-25.072,20.319-55.372,20.383
		c-21.374,0.044-35.177-3.637-39.868-5.118c-23.936-4.07-41.101-11.868-41.101-11.868s0.921-1.15,2.49-3.038l-3.937-1.934
		c0,0,10.144-17.255,30.777-30.097c-13.413-2.012-27.425-3.603-41.929-4.707v109.23c0,6.019,2.451,11.471,6.436,15.464
		c3.99,3.983,9.442,6.436,15.459,6.436h133.807C1285.867,800.121,1298.617,784.557,1298.617,767.904z"/>
	<path style="fill:#F1BFB5;" d="M1030.457,681.027c-3.284,0.141-6.558,0.297-9.798,0.487v51.372h77.408v-51.311
		c-12.755-0.765-25.827-1.181-39.176-1.181C1049.263,680.394,1039.787,680.625,1030.457,681.027z"/>
	<path style="fill:#F1BFB5;" d="M970.969,686.494c21.135,12.887,31.513,30.553,31.513,30.553l-3.927,1.934
		c1.564,1.888,2.485,3.038,2.485,3.038s-17.169,7.8-41.111,11.868c-4.692,1.484-18.485,5.162-39.864,5.118
		c-31.878-0.068-48.653-12.69-56.619-21.744c-27.849,14.297-44.283,31.764-44.283,50.643c0,16.652,12.751,32.217,34.87,45.469
		h134.752c6.017,0,11.469-2.453,15.46-6.436c3.985-3.993,6.436-9.445,6.436-15.464V682.165l-0.361,0.03
		C996.742,683.212,983.607,684.674,970.969,686.494z"/>
	<path style="fill:#FFFFFF;" d="M1222.856,680.481c4.541,5.881,7.187,13.221,7.187,21.177c0,14.458-8.819,26.848-21.369,32.161
		c17.588-3.025,37.568-10.175,55.746-25.574l-0.083,0.178c4.214-4.29,9.369-17.669,11.722-24.219
		C1265.667,682.457,1246.037,679.904,1222.856,680.481z"/>
	<path style="fill:#FFFFFF;" d="M1187.207,735.772c-15.591-3.537-27.269-17.462-27.269-34.115c0-3.941,0.711-7.693,1.92-11.223
		l-0.034,0.01c-11.712,3.919-15.62,5.549-38.685,28.541l-0.005-0.005c-1.569,1.888-2.49,3.038-2.49,3.038
		s17.165,7.798,41.101,11.868c-1.179-0.375-1.807-0.614-1.807-0.614S1170.954,735.962,1187.207,735.772z"/>
	<path style="fill:#79432E;" d="M1187.207,735.772c6.446-0.075,13.725-0.621,21.467-1.954c12.55-5.313,21.369-17.703,21.369-32.161
		c0-7.956-2.646-15.296-7.187-21.177c-19.011,0.475-40.39,3.055-60.998,9.954c-1.208,3.53-1.92,7.281-1.92,11.223
		C1159.938,718.311,1171.616,732.235,1187.207,735.772z M1194.997,686.233c1.988,0,3.874,0.407,5.623,1.094
		c1.72-2.531,4.624-4.195,7.912-4.195c5.281,0,9.56,4.28,9.56,9.562c0,4.65-3.323,8.519-7.728,9.374
		c-0.233,8.307-7.001,14.979-15.367,14.979c-8.506,0-15.405-6.899-15.405-15.408C1179.592,693.13,1186.491,686.233,1194.997,686.233
		z"/>
	<path style="fill:#4C0D18;" d="M1194.997,717.047c8.366,0,15.133-6.672,15.367-14.979c-0.594,0.117-1.203,0.185-1.832,0.185
		c-5.281,0-9.564-4.28-9.564-9.559c0-1.991,0.609-3.837,1.652-5.367c-1.749-0.687-3.635-1.094-5.623-1.094
		c-8.506,0-15.405,6.897-15.405,15.406C1179.592,710.148,1186.491,717.047,1194.997,717.047z"/>
	<path style="fill:#FFFFFF;" d="M1208.532,702.253c0.629,0,1.238-0.068,1.832-0.185c4.404-0.855,7.728-4.724,7.728-9.374
		c0-5.281-4.278-9.562-9.56-9.562c-3.288,0-6.192,1.664-7.912,4.195c-1.043,1.53-1.652,3.376-1.652,5.367
		C1198.968,697.972,1203.251,702.253,1208.532,702.253z"/>
	<path style="fill:#4C0D18;" d="M1236.264,667.027c-35.074,1.128-68.161,10.229-79.615,16.105c-2.348,1.206-4.551,2.497-6.675,3.817
		c-20.633,12.843-30.777,30.097-30.777,30.097l3.937,1.934l0.005,0.005c23.065-22.991,26.972-24.621,38.685-28.541l0.034-0.01
		c20.609-6.899,41.988-9.479,60.998-9.954c23.182-0.577,42.811,1.976,53.203,3.722c5.077,0.853,7.971,1.513,7.971,1.513
		c-0.721-9.001-7.698-16.138-16.648-17.332c-1.505-0.199-3.04-0.326-4.56-0.485C1254.047,666.986,1245.102,666.745,1236.264,667.027
		z"/>
	<path style="fill:#4C0D18;" d="M1208.674,733.819c-7.742,1.332-15.021,1.878-21.467,1.954c-16.253,0.19-27.269-2.499-27.269-2.499
		s0.629,0.238,1.807,0.614c4.692,1.481,18.495,5.162,39.868,5.118c30.3-0.063,46.953-11.476,55.372-20.383
		c4.945-5.228,7.04-9.515,7.352-10.2l0.083-0.178C1246.242,723.643,1226.261,730.793,1208.674,733.819z"/>
	<path style="fill:#CA8080;" d="M1116.42,654.51c-1.934,19.562,29.798,10.551,68.297,0.863
		c16.395,6.531,33.861,10.124,51.547,11.654c8.838-0.282,17.783-0.041,26.558,0.872c3.868-0.065,7.727-0.185,11.566-0.395
		c13.486-0.735,14.163-2.813,19.542,9.016c4.307,9.476,6.227,21.152,8.838,31.225c2.607,10.08,5.954,21.077,7.25,31.907
		c-0.087-13.91-0.876-41.744-4.341-92.809c-6.879,1.479-13.895,2.356-20.877,2.356c-2.724,0-5.437-0.132-8.131-0.407
		c-14.456-1.483-31.713-6.265-47.455-13.6l-0.277-0.565h-11.761c10.465,8.195,22.592,14.256,35.527,17.272l0.482,0.612l-0.497,0.604
		c-6.221,1.32-12.482,1.941-18.723,1.941c-22.056,0-43.864-7.759-63.06-19.902l-0.2-0.526h-40.765c-3.055,0-5.954,0.643-8.599,1.786
		l-0.658,0.607C1118.588,642.406,1117.039,648.248,1116.42,654.51z"/>
	<path style="fill:#CA8080;" d="M1148.81,618.262c-4.024,2.102-7.659,4.268-10.923,6.388h18.402
		C1153.731,622.586,1151.226,620.467,1148.81,618.262z"/>
	<path style="fill:#CA8080;" d="M1198.14,614.467c2.368,3.403,4.892,6.699,7.698,9.761l0.073,0.422h4.682
		C1206.009,621.507,1201.818,618.102,1198.14,614.467z"/>
	<path style="fill:#FFFFFF;" d="M913.015,733.821c-12.555-5.313-21.378-17.705-21.378-32.163c0-7.956,2.65-15.296,7.191-21.177
		c-23.177-0.577-42.811,1.976-53.204,3.722c2.353,6.553,7.513,19.942,11.722,24.224l-0.083-0.183
		C875.436,723.646,895.422,730.796,913.015,733.821z"/>
	<path style="fill:#FFFFFF;" d="M959.855,690.445l-0.029-0.01c1.203,3.53,1.914,7.281,1.914,11.223
		c0,16.653-11.678,30.577-27.264,34.115c16.253,0.19,27.264-2.499,27.264-2.499s-0.628,0.241-1.812,0.614
		c23.941-4.068,41.111-11.868,41.111-11.868s-0.921-1.15-2.485-3.038l-0.01,0.005C975.48,695.994,971.568,694.364,959.855,690.445z"
		/>
	<path style="fill:#79432E;" d="M913.015,733.821c7.737,1.33,15.016,1.876,21.462,1.951c15.586-3.537,27.264-17.462,27.264-34.115
		c0-3.941-0.711-7.693-1.914-11.223c-20.614-6.896-41.988-9.479-60.999-9.954c-4.541,5.881-7.191,13.221-7.191,21.177
		C891.636,716.116,900.459,728.508,913.015,733.821z M926.681,686.233c4.044,0,7.693,1.591,10.441,4.136
		c1.754-2.049,4.326-3.376,7.235-3.376c5.281,0,9.564,4.28,9.564,9.562c0,5.279-4.283,9.561-9.564,9.561
		c-1.004,0-1.949-0.198-2.86-0.482c-1.769,6.558-7.698,11.413-14.816,11.413c-8.507,0-15.406-6.899-15.406-15.408
		C911.275,693.13,918.174,686.233,926.681,686.233z"/>
	<path style="fill:#4C0D18;" d="M926.681,717.047c7.118,0,13.047-4.855,14.816-11.413c-3.873-1.223-6.699-4.801-6.699-9.079
		c0-2.373,0.896-4.514,2.324-6.185c-2.748-2.545-6.398-4.136-10.441-4.136c-8.507,0-15.406,6.897-15.406,15.406
		C911.275,710.148,918.174,717.047,926.681,717.047z"/>
	<path style="fill:#FFFFFF;" d="M941.497,705.634c0.911,0.285,1.856,0.482,2.86,0.482c5.281,0,9.564-4.283,9.564-9.561
		c0-5.281-4.283-9.562-9.564-9.562c-2.909,0-5.482,1.328-7.235,3.376c-1.428,1.671-2.324,3.813-2.324,6.185
		C934.798,700.832,937.624,704.411,941.497,705.634z"/>
	<path style="fill:#4C0D18;" d="M837.653,685.716c0,0,2.894-0.66,7.97-1.513c10.392-1.747,30.027-4.299,53.204-3.722
		c19.011,0.475,40.385,3.057,60.999,9.954l0.029,0.01c11.713,3.919,15.625,5.549,38.689,28.541l0.01-0.005l3.927-1.934
		c0,0-10.378-17.666-31.513-30.553c-1.905-1.159-3.859-2.295-5.939-3.362c-14.758-7.571-65.413-20.538-109.978-14.828l-0.75,0.08
		c-3.61,0.48-6.87,1.964-9.555,4.11C840.771,675.67,838.082,680.345,837.653,685.716z"/>
	<path style="fill:#4C0D18;" d="M934.477,735.772c-6.446-0.075-13.725-0.621-21.462-1.951
		c-17.593-3.025-37.578-10.175-55.751-25.576l0.083,0.183c0.292,0.641,2.066,4.246,6.1,8.833
		c7.966,9.055,24.741,21.676,56.619,21.744c21.379,0.044,35.172-3.635,39.864-5.118c1.184-0.373,1.812-0.614,1.812-0.614
		S950.73,735.962,934.477,735.772z"/>
	<path style="fill:#CA8080;" d="M943.758,607.746c-3.6-0.743-7.264-1.349-11.059-1.656c-9.34-0.755-21.053-2.2-34.665-2.717
		c-0.682,1.815-1.364,3.635-2.1,5.399c-2.266,5.418-4.96,10.748-7.995,15.878h59.488
		C945.517,619.134,944.396,613.49,943.758,607.746z"/>
	<path style="fill:#CA8080;" d="M996.337,636.155c-0.024,0.721-0.034,1.447-0.034,2.171c0,1.856,0.073,3.72,0.277,5.598
		c1.048,9.649,6.334,19.193,14.1,24.543v-11.941c0-6.02-2.451-11.472-6.436-15.462
		C1002.033,638.854,999.305,637.254,996.337,636.155z"/>
	<path style="fill:#CA8080;" d="M999.407,626.555c6.724,2.397,12.424,6.943,16.21,12.863c0.589-4.122,1.603-8.163,3.055-11.937
		c7.191-18.714,21.466-33.766,31.001-51.401c9.53-17.637,13.413-41.32,0.292-56.477c29.228,27.866,49.978,64.573,76.974,94.1
		c1.769-3.747,3.966-7.559,6.607-11.204c-23.606-27.072-39.693-58.248-59.762-86.268c-10.572-14.76-22.333-28.594-36.818-40.543
		c-4.809-3.961-9.93-7.708-15.391-11.22c5.579,6.122,8.921,14.448,10.66,22.614c1.203,5.659,1.7,11.415,1.7,17.198
		c-0.005,15.17-3.406,30.538-6.406,44.921c-5.238,24.948-23.367,48.068-29.301,73.047c0.482,1.362,0.906,2.67,1.282,3.91
		L999.407,626.555z"/>
	<path style="fill:#582712;" d="M1891.844,1835.608c-15.288-104.492-45.934-199.471-63.425-226.869
		c-33.111-51.805-86.202-77.573-103.61-84.967l0.628-7.199l-0.273-0.572l-267.239-179.228l-0.005-0.005l-205.149-137.59
		l1.851-75.746l-0.234-0.504l-0.375-0.078l-0.17-0.036c-50.801,13.227-103.605,19.988-156.546,19.988
		c-50.387,0-100.891-6.124-149.904-18.624l0.37,0.27c57.612,90.889,110.421,183.971,153.656,282.799l-0.044,0.585l-0.506,0.29
		c-6.12,0.17-12.239,0.253-18.358,0.253c-134.913-0.002-269.569-40.465-399.766-83.366l-0.424-0.507l0.273-0.604l-47.06,31.562
		l-47.844,32.088l0.521-0.078l0.4,0.353c85.622,201.408,180.589,397.205,297.68,581.717l0.019,0.634l-0.546,0.324h1051.224
		l0.443-0.188l0.181-0.451C1936.424,1915.861,1893.033,1837.769,1891.844,1835.608z"/>
	<path style="fill:#752E0F;" d="M682.745,1325.007c130.197,42.901,264.852,83.364,399.766,83.366c6.119,0,12.239-0.083,18.358-0.253
		l0.506-0.29l0.044-0.585c-43.235-98.828-96.044-191.91-153.656-282.799l-0.37-0.27l-0.658-0.18
		c-27.157-6.958-53.851-15.805-79.795-26.724l-0.258,0.027l-0.336,0.034l-0.272,0.529l2.479,101.315l-185.958,124.718l-0.273,0.604
		L682.745,1325.007z"/>
	<path style="fill:#752E0F;" d="M886.291,1969.537c-117.091-184.511-212.058-380.309-297.68-581.717l-0.4-0.353l-0.521,0.078
		L396.158,1516l-0.278,0.572l0.634,7.196c-17.398,7.391-70.495,33.16-103.615,84.97c-17.491,27.398-48.141,122.377-63.424,226.869
		c-1.189,2.161-44.58,80.253-45.769,134.248l0.181,0.451l0.443,0.188h701.436l0.546-0.324L886.291,1969.537z"/>
	<path style="fill:#BA6B32;" d="M943.758,607.746l-0.058-0.465c-0.58-5.403-0.75-10.894-0.75-16.45c0-3.501,0.068-7.031,0.146-10.58
		l0.01-0.69c-6.573-0.889-12.175-1.172-15.416-1.235l-0.18-0.003h-0.01l-0.142-0.002c-0.765-0.015-1.393-0.017-1.851-0.017
		c-0.536,0-0.833,0.005-0.833,0.005h-0.024c-6.694,0.375-13.169,1.155-19.469,2.158l-0.224,0.904
		c-1.949,7.408-4.18,14.672-6.758,21.574l-0.166,0.429c13.613,0.517,25.325,1.961,34.665,2.717
		C936.494,606.396,940.157,607.003,943.758,607.746z"/>
	<path style="fill:#BA6B32;" d="M839.368,608.43c-0.526-1.32-1.169-2.606-1.807-3.902l0.01,0.282c0,1.349-0.151,2.797-0.414,4.317
		l-0.093,0.409c0.823-0.209,1.647-0.402,2.475-0.597L839.368,608.43z"/>
	<path style="fill:#BA6B32;" d="M999.407,626.555l0.103-0.397c-0.375-1.24-0.799-2.548-1.282-3.91l-0.039,0.154
		c-0.273,1.157-0.555,2.297-0.77,3.435l-0.034,0.053c0.511,0.141,1.028,0.278,1.525,0.449L999.407,626.555z"/>
	<path style="fill:#BA6B32;" d="M791.13,731.122l0.506,0.168v-67.681c-5.905,1.883-11.946,3.008-17.593,3.203l-0.56-0.317
		l0.014-0.646c5.335-8.273,7.693-17.988,8.2-27.958c0.073-1.425,0.107-2.853,0.107-4.285c0-4.312-0.312-8.641-0.848-12.882
		c-2.304-18.292-6.972-35.554-9.578-53.386c-19.942,20.921-43.483,36.923-72.979,39.186l-0.517-0.207l-0.146-0.534
		c-2.738,13.917-8.857,26.38-21.252,36.034l-0.239,0.487l0.234,0.489c15.761,12.704,36,19.53,56.204,19.53
		c7.211,0,14.422-0.889,21.428-2.675c0.653,5.252,1.788,10.176,3.274,14.894l0.025,0.066c3.527,11.177,9.076,21.232,15.401,31.707
		C775.812,711.28,784.24,721.492,791.13,731.122z"/>
	<path style="fill:#BA6B32;" d="M804.767,657.907l-0.302,0.183c-0.857,0.473-1.72,0.887-2.572,1.311l-0.278-0.014v69.9l0.624-0.611
		C802.413,711.851,803.003,686.384,804.767,657.907z"/>
	<path style="fill:#FABC76;" d="M698.399,606.526c29.496-2.263,53.037-18.266,72.979-39.186c2.607,17.832,7.274,35.094,9.578,53.386
		c0.536,4.241,0.848,8.57,0.848,12.882c0,1.432-0.034,2.86-0.107,4.285c-0.507,9.971-2.865,19.686-8.2,27.958l-0.014,0.646
		l0.56,0.317c5.647-0.195,11.688-1.321,17.593-3.203v-7.084c0.019-17.566,14.315-31.856,31.878-31.876h8.414
		c2.373-5.199,4.273-10.468,5.135-15.113l0.093-0.409c0.263-1.52,0.414-2.968,0.414-4.317l-0.01-0.282
		c0.638,1.296,1.282,2.582,1.807,3.902l0.171,0.509c1.968,5.054,3.357,10.326,4.102,15.71h44.297
		c3.035-5.13,5.729-10.461,7.995-15.878c0.736-1.764,1.418-3.584,2.1-5.399l0.166-0.429c2.577-6.901,4.809-14.166,6.758-21.574
		l0.224-0.904c3.269-12.575,5.778-25.466,7.781-37.457c0.75-4.504,1.34-11.386,1.34-18.986c0-7.995-0.653-16.775-2.48-24.402
		c-1.12-4.667-2.685-8.906-4.833-12.275c22.105,18.005,35.547,46.234,36.234,74.689c0.044,1.841,0.058,3.678,0.058,5.513
		c0,4.027-0.092,8.029-0.175,12.012l-0.01,0.69c-0.078,3.549-0.146,7.079-0.146,10.58c0,5.557,0.171,11.047,0.75,16.45l0.058,0.465
		c0.639,5.744,1.759,11.388,3.669,16.904h41.359c2.772,0.003,5.452,0.4,8.02,1.069l0.58,0.171l0.034-0.053
		c0.214-1.138,0.497-2.278,0.77-3.435l0.039-0.154c5.935-24.979,24.064-48.1,29.301-73.047c3.001-14.382,6.402-29.751,6.406-44.921
		c0-5.783-0.497-11.54-1.7-17.198c-1.739-8.165-5.081-16.492-10.66-22.614c5.461,3.513,10.582,7.259,15.391,11.22l-0.205-0.658
		l0.531-0.443c5.642-0.614,12.17-1.864,18.344-1.864c4.136,0,8.127,0.558,11.59,2.29l0.141,0.095
		c48.112,43.298,96.287,77.25,153.354,106.456c-45.32-35.954-55.362-98.017-74.534-150.68l0.137-0.648l0.643-0.158
		c29.262,9.769,63.581,14.821,88.594,43.435c-3.518-19.834-9.817-39.074-18.651-57.22l-0.083-0.066
		c-17.354-35.661-44.551-67.008-80.37-89.8l-0.263-0.701l0.599-0.448c29.398,0.015,68.492,0,93.773,19.072
		c-10.299-44.197-39.922-87.907-83.932-97.664l-0.477-0.721l0.702-0.504c6.046,0.863,12.419,1.126,18.967,1.126
		c10.007,0,20.438-0.612,30.821-0.614c1.359,0,2.719,0.01,4.078,0.034c19.595,0.343,38.845,3.513,54.392,17.859
		c-10.309-30.446-25.276-64.926-50.947-88.29l-0.102-0.799l0.775-0.231c-38.982-17.138-84.536-23.715-128.092-23.718
		c-18.007,0-35.674,1.126-52.39,3.097c-35.211,4.153-70.266,13.666-101.481,30.835c-14.29,7.859-28.093,15.542-42.338,23.281
		c-13.71,7.45-25.72,17.908-35.416,30.085c-10.616,13.335-18.504,28.648-24.083,44.76c0.575-4.375,0.901-8.768,0.901-13.162
		c0-10.947-1.734-21.893-4.965-32.543c-2.67-8.874-6.334-14.543-14.738-19.393c-2.943-1.693-7.756-2.414-12.331-3.186
		c-4.555-0.736-8.896-1.589-10.465-3.031l-0.882,0.051l0.054,0.88c5.919,5.247,8.575,13.23,8.575,21.35
		c0,3.362-0.458,6.74-1.32,9.946c-2.953,10.962-9.871,20.453-16.804,29.637c-6.928,9.186-14.144,18.604-17.632,29.73
		c-1.427,4.546-2.109,9.279-2.109,14.015c0.004,16.027,7.82,32.061,20.989,41.352c-4.507,1.664-9.257,2.49-14.042,2.49
		c-16.506,0.008-33.223-9.405-40.394-24.385l-0.658-0.346l-0.521,0.536c-0.55,4.197-0.877,8.465-0.877,12.729
		c0,8.633,1.33,17.242,4.803,25.157c5.043,11.486,15.177,21.172,27.532,23.569c-11.854,12.397-22.329,28.302-30.202,43.432
		c-11.109,21.354-18.002,44.928-20.029,68.923c-0.258,3.108-0.37,6.312-0.37,9.593c0,19.79,4.063,42.414,4.063,63.671
		c0,7.532-0.512,14.892-1.886,21.888l0.146,0.534L698.399,606.526z"/>
	<path style="fill:#BA6B32;" d="M1204.172,175.574c25.671,23.364,40.638,57.844,50.947,88.29
		c-15.547-14.346-34.797-17.516-54.392-17.859c-1.359-0.024-2.719-0.034-4.078-0.034c-10.383,0.003-20.814,0.614-30.821,0.614
		c-6.548,0-12.921-0.263-18.967-1.126l-0.702,0.504l0.477,0.721c44.01,9.757,73.632,53.467,83.932,97.664
		c-25.281-19.072-64.375-19.057-93.773-19.072l-0.599,0.448l0.263,0.701c35.82,22.792,63.016,54.139,80.37,89.8l0.083,0.066
		c8.833,18.146,15.133,37.386,18.651,57.22c-25.014-28.614-59.333-33.666-88.594-43.435l-0.643,0.158l-0.137,0.648
		c19.172,52.663,29.213,114.726,74.534,150.68c-57.067-29.206-105.242-63.157-153.354-106.456l-0.141-0.095
		c-3.464-1.732-7.454-2.29-11.59-2.29c-6.173,0-12.702,1.25-18.344,1.864l-0.531,0.443l0.205,0.658
		c14.485,11.949,26.246,25.783,36.818,40.543c20.068,28.02,36.156,59.196,59.762,86.268c-2.641,3.644-4.838,7.457-6.607,11.204
		l-0.126,0.238c-1.876,4.005-3.294,7.878-4.361,11.303l0.078,0.349l0.516-0.164c2.222-0.495,4.521-0.777,6.894-0.779h7.947
		c3.264-2.119,6.899-4.285,10.923-6.388c2.417,2.205,4.921,4.324,7.479,6.388h49.622l-0.073-0.422
		c-2.806-3.062-5.33-6.358-7.698-9.761c3.678,3.635,7.869,7.04,12.453,10.183h84.624c11.752,0.012,21.998,6.441,27.522,15.936
		l0.098-0.097c1.218-0.455,2.431-0.896,3.601-1.374c6.665-2.719,13.89-5.549,19.206-10.319c0.083-0.065,0.565-0.614,1.174-1.369
		c0.624-0.767,1.423-1.783,2.28-2.916c1.715-2.268,3.678-5.013,4.955-7.17c0.823-1.359,1.325-2.555,1.335-2.954
		c-19.055-2.846-37.32-10.08-53.413-20.636l-0.282-0.473l-0.107-1.323c-18.105-12.119-33.32-28.521-43.615-47.708
		c12.326,11.81,26.358,22.433,42.061,28.641l-0.029-0.373l0.248-0.551l0.599-0.08c5.501,2.144,11.196,3.747,17.086,4.638
		c3.011,0.456,6.081,0.68,9.16,0.68c21.164,0.005,42.787-10.641,50.821-29.764c-13.515-4.943-26.29-11.603-38.07-19.7l-0.219-0.273
		c-2.022-4.823-4.702-9.203-9.627-12.487l-0.224-0.772l0.721-0.351c19.235,4.818,38.846,5.023,53.842,23.476
		c-5.213-44.095-20.122-88.002-49.476-122.246l-0.092-0.668l0.565-0.363c24.472,0.009,44.224-9.686,68.852-14.758
		c-14.884-24.653-34.577-49.352-49.432-74.1l-0.048-0.538l0.385-0.375c6.153-2.031,22.212-9.863,30.977-9.89
		c1.087,0,2.066,0.129,2.938,0.417v-0.008l0.112,0.027l0.068,0.022l0.886,0.461c1.023-0.702,1.876-1.44,2.251-2.361l0.156-0.884
		c-0.03-1.637-1.165-3.678-2.806-6.056c-2.475-3.537-6.193-7.661-9.462-10.918c-1.637-1.629-3.162-3.037-4.37-4.051
		c-0.609-0.506-1.13-0.916-1.569-1.208l-0.136-0.083c13.418-11.262,22.777-27.252,25.934-44.489l-0.268-0.631l-0.687-0.005
		c-11.664,7.53-25.213,10.75-39.108,10.75c-15.63,0-31.693-4.078-45.944-10.658c-26.957-12.429-49.525-32.594-73.72-50.069
		c-10.947-7.905-22.879-14.557-35.498-20.107l-0.775,0.231L1204.172,175.574z"/>
	<path style="fill:#9F4521;" d="M1306.388,646.703l-0.711,0.141c3.464,51.065,4.254,78.899,4.341,92.809
		c0.005,0.969,0.01,1.878,0.01,2.716c0,6.823-0.18,9.344-0.18,9.354l0.438,0.638l0.156-0.058l0.502-0.193l0.063-0.024l0.755-1.269
		v0.005c0.531-0.887,1.053-1.773,1.574-2.66l0.774-1.306c0.775-1.306,1.55-2.609,2.319-3.922l0.682-0.494v-85.915
		c0-4.322-1.296-8.329-3.479-11.735l-0.117,0.107C1311.158,645.575,1308.786,646.17,1306.388,646.703z"/>
	<path style="fill:#9F4521;" d="M1389.116,314.83l-0.112-0.027v0.008c-0.872-0.287-1.851-0.417-2.938-0.417
		c-8.765,0.027-24.823,7.859-30.977,9.89l-0.385,0.375l0.048,0.538c14.855,24.748,34.548,49.447,49.432,74.1
		c-24.628,5.072-44.38,14.767-68.852,14.758l-0.565,0.363l0.092,0.668c29.354,34.244,44.263,78.151,49.476,122.246
		c-14.996-18.453-34.607-18.657-53.842-23.476l-0.721,0.351l0.224,0.772c4.926,3.284,7.605,7.664,9.627,12.487l0.219,0.273
		c11.781,8.097,24.555,14.758,38.07,19.7c-8.034,19.123-29.656,29.769-50.821,29.764c-3.079,0-6.149-0.224-9.16-0.68
		c-5.89-0.892-11.586-2.495-17.086-4.638l-0.599,0.08l-0.248,0.551l0.029,0.373c0.55,6.611,1.062,12.921,1.554,19.067l0.107,1.323
		l0.282,0.473c16.093,10.556,34.358,17.79,53.413,20.636c-0.01,0.399-0.512,1.595-1.335,2.954c-1.277,2.156-3.24,4.902-4.955,7.17
		c-0.857,1.133-1.656,2.148-2.28,2.916c-0.609,0.755-1.091,1.304-1.174,1.369c-5.316,4.77-12.541,7.601-19.206,10.319
		c-1.169,0.477-2.383,0.918-3.601,1.374l-0.098,0.097l0.317,0.487c2.558,4.58,4.029,9.846,4.034,15.452v67.225l0.541-0.224
		l0.648-1.138c8.424-14.957,15.255-35.408,26.226-48.453l0.366-0.422c0.867-1.04,1.71-2.09,2.611-2.979
		c15.342-15.199,36.809-25.905,53.135-41.109c8.555-7.969,16.731-16.348,24.492-25.099c1.676-1.9,5.315-7.457,9.091-12.665
		c1.881-2.599,3.786-5.099,5.457-6.965c1.642-1.873,3.177-3.077,3.81-3.118l0.409-0.241l0.122-0.463l-0.244-0.412l-0.463-0.117
		c-6.494,0.921-13.052,1.381-19.61,1.381c-7.795,0-15.581-0.69-23.259-1.986c28.307-5.517,53.549-25.108,65.681-51.306l-0.005-0.536
		l-0.419-0.334c-23.664-5.486-38.465-30.178-42.909-54.3c-4.468-24.136-1.394-49.162-4.083-73.785
		c-0.098-0.906-0.204-1.822-0.317-2.748c-2.558-20.614-8.882-45.113-21.554-61.744c-1.554-2.036-4.969-6.689-8.463-11.004
		c-1.749-2.158-3.513-4.234-5.091-5.868c-1.199-1.23-2.251-2.212-3.192-2.806l-0.886-0.461L1389.116,314.83z"/>
	<path style="fill:#FABC76;" d="M804.464,658.089l0.302-0.183c5.237-2.945,9.978-6.521,13.671-10.692
		c2.056-2.329,5.121-6.836,8.224-12.278v-0.309h-3.147c-6.017,0-11.469,2.451-15.464,6.436c-3.986,3.993-6.436,9.442-6.436,15.462
		v2.86l0.278,0.014C802.745,658.976,803.607,658.562,804.464,658.089z"/>
	<path style="fill:#FABC76;" d="M837.843,664.99l0.628,0.215c17.447-4.222,31.742-15.744,42.582-30.202l0.034-0.375h-36.794
		c-0.014,10.244-2.109,20.478-6.533,29.7L837.843,664.99z"/>
	<path style="fill:#FABC76;" d="M996.581,643.924c-0.205-1.878-0.277-3.742-0.277-5.598c0-0.723,0.009-1.449,0.034-2.171
		l-0.619-0.287c-2.193-0.745-4.497-1.24-6.933-1.24H952.06v0.307c1.92,3.394,4.219,6.728,7.016,9.986
		c14.611,17.047,31.537,23.613,51.493,27.32l0.112-0.029v-3.744C1002.915,663.117,997.629,653.573,996.581,643.924z"/>
	<path style="fill:#BA6B32;" d="M1233.965,655.056c6.241,0,12.502-0.621,18.723-1.941l0.497-0.604l-0.482-0.612
		c-12.936-3.016-25.062-9.077-35.527-17.272h-46.47l0.2,0.526C1190.101,647.297,1211.908,655.056,1233.965,655.056z"/>
	<path style="fill:#BA6B32;" d="M1276.669,648.793c2.694,0.275,5.408,0.407,8.131,0.407c6.982,0,13.998-0.877,20.877-2.356
		l0.711-0.141c2.397-0.533,4.77-1.128,7.128-1.805l0.117-0.107l-0.287-0.492c-0.784-1.16-1.681-2.244-2.67-3.235
		c-3.99-3.985-9.442-6.436-15.459-6.436h-66.28l0.277,0.565C1244.956,642.528,1262.213,647.31,1276.669,648.793z"/>
	<path style="fill:#310D17;" d="M1327.09,791.473V656.526c-0.005-5.606-1.476-10.872-4.034-15.452l-0.317-0.487
		c-5.525-9.496-15.771-15.924-27.522-15.936H1129.94c-2.373,0.003-4.672,0.285-6.894,0.779l-0.516,0.164
		c-13.993,3.369-24.448,15.927-24.463,30.933v76.36h-77.408v-76.36c-0.01-6.298-1.871-12.159-5.042-17.108
		c-3.786-5.92-9.486-10.465-16.21-12.863l-0.497-0.216c-0.497-0.171-1.013-0.307-1.525-0.449l-0.58-0.171
		c-2.568-0.669-5.247-1.067-8.02-1.069H823.514c-17.564,0.019-31.859,14.31-31.878,31.876v134.947
		c0.015,15.308,10.875,28.119,25.286,31.177c2.129,0.453,4.332,0.699,6.592,0.701h165.271c17.564-0.019,31.854-14.312,31.873-31.878
		v-48.609h77.408v48.609c0.02,17.566,14.31,31.859,31.874,31.878h165.276c2.466-0.003,4.853-0.314,7.157-0.848
		C1316.498,819.229,1327.075,806.574,1327.09,791.473z M1010.681,791.473c0,6.019-2.451,11.471-6.436,15.464
		c-3.99,3.983-9.442,6.436-15.46,6.436H823.514c-3.084,0-6.012-0.663-8.682-1.827c-2.534-1.109-4.833-2.67-6.782-4.611
		c-3.986-3.99-6.436-9.442-6.436-15.461V656.526c0-6.02,2.451-11.469,6.436-15.462c3.995-3.985,9.447-6.436,15.464-6.436h165.271
		c2.436,0,4.741,0.494,6.933,1.24l0.619,0.287c2.967,1.099,5.696,2.699,7.908,4.909c3.985,3.99,6.436,9.442,6.436,15.462V791.473z
		 M1304.103,811.432c-2.724,1.225-5.715,1.941-8.887,1.941H1129.94c-6.017,0-11.469-2.453-15.459-6.436
		c-3.986-3.993-6.436-9.445-6.436-15.464V656.526c0-6.02,2.451-11.472,6.436-15.462c1.666-1.664,3.635-2.982,5.744-4.044
		l1.116-0.607c2.645-1.143,5.544-1.786,8.599-1.786h165.276c6.017,0,11.469,2.451,15.459,6.436c0.989,0.992,1.885,2.075,2.67,3.235
		l0.287,0.492c2.183,3.406,3.479,7.413,3.479,11.735v134.947c0,6.019-2.451,11.471-6.436,15.464
		C1308.786,808.822,1306.549,810.33,1304.103,811.432z"/>
</g>
</svg>
