<svg width="251" height="137" viewBox="0 0 251 137" fill="none" xmlns="http://www.w3.org/2000/svg">
<rect x="1" width="100" height="100" rx="50" fill="black"/>
<path d="M47.5 75.5L40.5 99L31.5 96.5L23.5 92.5L17.5 88L13 82.5L30 79L39 77L47.5 75.5Z" fill="white"/>
<path d="M1 84.4444L101 20L30.3333 136L47.6667 75.2381L1 84.4444Z" fill="url(#paint0_linear_0_1)" stroke="black"/>
<path d="M133.068 48.8182L132.403 52.9091H117.608L118.273 48.8182H133.068ZM117.966 75L122.841 45.7841C123.091 44.1477 123.665 42.7898 124.562 41.7102C125.46 40.6193 126.545 39.8068 127.818 39.2727C129.091 38.7273 130.42 38.4545 131.807 38.4545C132.83 38.4545 133.688 38.5398 134.381 38.7102C135.085 38.8693 135.597 39.017 135.915 39.1534L134.057 43.2784C133.83 43.2102 133.54 43.1307 133.188 43.0398C132.835 42.9375 132.392 42.8864 131.858 42.8864C130.619 42.8864 129.682 43.1932 129.045 43.8068C128.42 44.4205 128 45.3068 127.784 46.4659L123.062 75H117.966ZM144.855 40.0909L139.06 75H133.963L139.759 40.0909H144.855ZM147.536 84.8182C146.763 84.8182 146.075 84.7557 145.473 84.6307C144.871 84.517 144.422 84.392 144.126 84.2557L146.07 80.0795C146.967 80.3295 147.768 80.4261 148.473 80.3693C149.189 80.3125 149.859 80.017 150.484 79.483C151.109 78.9489 151.746 78.108 152.393 76.9602L153.348 75.2386L148.217 48.8182H153.467L156.706 69.1875H156.979L167.001 48.8182H172.678L156.979 78.4602C156.24 79.8693 155.399 81.0398 154.456 81.9716C153.524 82.9148 152.479 83.625 151.32 84.1023C150.172 84.5795 148.911 84.8182 147.536 84.8182ZM173.513 75L179.308 40.0909H200.956L200.206 44.625H183.825L182.053 55.2614H196.882L196.132 59.7784H181.303L178.78 75H173.513ZM201.229 75L205.592 48.8182H210.689L206.325 75H201.229ZM209.206 44.7273C208.32 44.7273 207.57 44.4318 206.956 43.8409C206.354 43.2386 206.075 42.5227 206.121 41.6932C206.166 40.8523 206.518 40.1364 207.178 39.5455C207.837 38.9432 208.604 38.642 209.479 38.642C210.365 38.642 211.109 38.9432 211.712 39.5455C212.314 40.1364 212.598 40.8523 212.564 41.6932C212.518 42.5227 212.166 43.2386 211.507 43.8409C210.859 44.4318 210.092 44.7273 209.206 44.7273ZM224.074 40.0909L218.278 75H213.182L218.977 40.0909H224.074ZM236.351 75.5284C233.783 75.5284 231.658 74.9773 229.976 73.875C228.305 72.7614 227.135 71.1989 226.464 69.1875C225.794 67.1648 225.686 64.7955 226.141 62.0795C226.584 59.3977 227.476 57.0341 228.817 54.9886C230.158 52.9432 231.828 51.3466 233.828 50.1989C235.839 49.0511 238.061 48.4773 240.493 48.4773C241.97 48.4773 243.362 48.7216 244.669 49.2102C245.987 49.6989 247.107 50.4659 248.027 51.5114C248.947 52.5568 249.584 53.9148 249.936 55.5852C250.3 57.2443 250.288 59.2614 249.902 61.6364L249.612 63.4432H228.783L229.379 59.625H245.197C245.436 58.2841 245.374 57.0966 245.01 56.0625C244.646 55.017 244.021 54.1932 243.135 53.5909C242.26 52.9886 241.158 52.6875 239.828 52.6875C238.464 52.6875 237.192 53.0455 236.01 53.7614C234.828 54.4773 233.839 55.392 233.044 56.5057C232.26 57.608 231.766 58.7443 231.561 59.9148L230.964 63.4091C230.669 65.3182 230.72 66.8523 231.118 68.0114C231.527 69.1705 232.243 70.0114 233.266 70.5341C234.288 71.0568 235.567 71.3182 237.101 71.3182C238.089 71.3182 239.004 71.1818 239.845 70.9091C240.697 70.625 241.453 70.2102 242.112 69.6648C242.771 69.108 243.322 68.4148 243.766 67.5852L248.436 68.4545C247.811 69.875 246.913 71.1193 245.743 72.1875C244.572 73.2443 243.192 74.0682 241.601 74.6591C240.021 75.2386 238.271 75.5284 236.351 75.5284Z" fill="black"/>
<defs>
<linearGradient id="paint0_linear_0_1" x1="51" y1="20" x2="51" y2="136" gradientUnits="userSpaceOnUse">
<stop stop-color="#00E6FF"/>
<stop offset="1" stop-color="#008A99"/>
</linearGradient>
</defs>
</svg>
